# xmcd
#
# Track frame offsets: 
#        150
#        41420
#        66102
#        90302
#        110457
#        131097
#        158712
#        184965
#        214012
#        235177
#        259757
#        277485
#
# Disc length: 3956 seconds
#
# Revision: 0
# Processed by: cddbd v1.5.2PL0 Copyright (c) Steve Scherf et al.
# Submitted via: ExactAudioCopy v0.99pb4
#
DISCID=ac0f720c
DTITLE=Various Artist - Midnight Blues
DYEAR=1992
DGENRE=Blues
TTITLE0=Gary B B Coleman - The Sky Is Crying
TTITLE1=Luther Houserocker Johnson - Cryin' And Thinkin'
TTITLE2=Happy Brown - Ain't No Way
TTITLE3=David Dee - Part Time Love
TTITLE4=Sonny Rhodes - Sleepwalk (Inst)
TTITLE5=Sonny Rhodes - House Without Love
TTITLE6=Vernon Garrett - Walkin' The Back Streets And Crying
TTITLE7=Gary B B Coleman - I'll Take Care Of You
TTITLE8=Little Johnny Taylor - Little Uglyman
TTITLE9=Buster Benton - Sweey Sixteen
TTITLE10=Smokehouse - Swamptown
TTITLE11=Legendary Blues Band - No One To Love Me
EXTD=
EXTT0=
EXTT1=
EXTT2=
EXTT3=
EXTT4=
EXTT5=
EXTT6=
EXTT7=
EXTT8=
EXTT9=
EXTT10=
EXTT11=
PLAYORDER=
